<svg xmlns="http://www.w3.org/2000/svg" viewBox="0 0 528 537.96"><defs><style>.cls-1{fill:#fff;}</style></defs><g id="Layer_2" data-name="Layer 2"><g id="Layer_1-2" data-name="Layer 1"><path class="cls-1" d="M264,527.5a263.25,263.25,0,1,1,86.18-14.42A262.65,262.65,0,0,1,264,527.5Z"/><path d="M264,1A263,263,0,0,1,477.14,418.11a263,263,0,0,1-426.72-.61A262.92,262.92,0,0,1,264,1m0-1C118.2,0,0,118.2,0,264,0,379,73.56,476.86,176.19,513a265.18,265.18,0,0,0,174.15.51C453.74,477.79,528,379.56,528,264,528,118.2,409.8,0,264,0Z"/><path d="M196,146.24c9.17-7.86,18-16.33,27.65-23.59,4.9-3.68,9.74-7.46,14.75-11,4.55-3.24,9.58-5.92,13.91-9.45,2-1.6,3.56-3.2,3.41-5.85-.21-3.57-1.65-7.25-2.56-10.69-2.5-9.52-3.74-19.29-5.63-28.93l-1,.07c-3.95.35-7.84,1.5-11.75,2.32C224.73,61.23,215,64.37,206,69.56,195.23,75.79,185.34,83,176.89,92.29a68.89,68.89,0,0,0-15,25.14,62.86,62.86,0,0,0-.72,35.54,125.3,125.3,0,0,0,5.35,15.28C177.09,162,186.71,154.23,196,146.24Z"/><path d="M259.46,115.19A162.82,162.82,0,0,0,249.22,134c6.18-.82,12.52-.68,18.78-.68C265.43,127.1,262.56,121.07,259.46,115.19Z"/><path d="M253.57,116.42a2.28,2.28,0,0,1-.13-2.3c2.19-4.56,6.12-7.68,9-11.77,3.18-4.54,3.26-9.57,3.58-14.88.36-6.17,1.3-12.39,2.12-18.52a128.72,128.72,0,0,1,2.36-13h-.25c-3.33,0-6.65.57-10,.66-2.66.08-5.33,0-8,0,.84,4.43,1.55,8.88,2.32,13.33,1.15,6.64,2.74,13.13,4.47,19.64.79,3,1.82,6.22,1.19,9.3-.59,2.85-2.63,5-4.83,6.76-4.46,3.6-9.52,6.39-14.19,9.69-5.3,3.74-10.48,7.67-15.61,11.63-19.4,14.94-36.07,33.1-57.31,45.6,1.5,3.52,3,7,4.43,10.57a16.33,16.33,0,0,0,2.54,4c6.94,8.63,12.68,17.87,15.61,28.66.42,1.54,1.9,2.8,2.88,4.19,1.33-1.35,3.36-2.49,3.84-4.09.9-3,.25-6.52,1.41-9.35,2.28-5.56,5.35-10.81,8.11-16.17.11-.23.39-.37.56-.58,2.85-3.67,6-7.14,8.47-11.07,3.87-6.26,7-13,10.88-19.24,6.16-9.81,12.66-19.4,19.16-29,.29-.42.61-.88.95-1.34a2.2,2.2,0,0,1,.06-2A89.91,89.91,0,0,1,253.57,116.42Z"/><path d="M336.7,165.9a218.08,218.08,0,0,0-30.11-44.05,232,232,0,0,0-35.93-34c-.05.8-.1,1.59-.14,2.39a33.79,33.79,0,0,1-1.5,9.19,2.41,2.41,0,0,1,.55.44c6.68,7.25,13.2,14.65,19.44,22.29,20.2,24.73,37.2,52.05,46.73,82.55a25.81,25.81,0,0,1,5-6.64,39.78,39.78,0,0,0,5.83-6.45A128.31,128.31,0,0,0,336.7,165.9Z"/><path d="M273.39,67a77.09,77.09,0,0,1,27.12,12.06c25.62,17.79,41.05,45.73,56.63,72.17.47-3.91.89-7.84,1.27-11.76.64-6.79,1.36-13.92-1.41-20.69-1.81-4.41-2.7-9.26-5-13.39a102.89,102.89,0,0,0-25.26-30.72c-8.44-6.83-17.49-12.67-28.32-14.91-6.54-1.36-13.21-2.07-19.83-3-1.13-.15-2.27-.31-3.42-.44-.88,3.51-1.55,7.05-2.1,10.63A1.65,1.65,0,0,1,273.39,67Z"/><path d="M345.91,141.37c-17.12-28.66-38.42-61.87-73.46-69.85l-.09.73c-.43,3.47-.88,6.94-1.24,10.42a2.6,2.6,0,0,1,.75.37,219.35,219.35,0,0,1,21.68,18.34A252.94,252.94,0,0,1,329.26,144c8.64,13,16.12,27.14,20.62,42.15a35.45,35.45,0,0,0,2.61-7.38c1.52-6.62,2.7-13.32,3.67-20.06C352.72,152.93,349.35,147.13,345.91,141.37Z"/><path d="M323.12,184.33c-13.45-30.08-34-56.23-56.17-80.42-.16.26-.33.52-.51.77-1.75,2.51-3.91,4.67-5.83,7a2.17,2.17,0,0,1,.31.37,92.25,92.25,0,0,1,7.62,13.75,2.34,2.34,0,0,1,.08,1.79,14,14,0,0,1,1.06,1.19c4.94,6.21,10.49,11.92,15.52,18.06,5.46,6.68,10.81,13.47,15.81,20.49,4.34,6.08,8.14,12.54,12.13,18.86,2.53,4,5.53,7.8,7.31,12.1,1.94,4.69,2.72,9.86,4.11,15.23a9.25,9.25,0,0,0,7.93-3.41A192.37,192.37,0,0,0,323.12,184.33Z"/><path d="M216.56,248.92c.29,1.61.53,3.47,1,5.29a5.63,5.63,0,0,0,1.22,1.87c1.69,2.12,3.42,4.23,5.69,7,.86-2.9,1.71-5.43,2.35-8,.36-1.49.27-3,.58-4.54,2-9.24,2.13-9,13.41-10.75A38.78,38.78,0,0,0,253.57,235c5.25-3,9.27-3.28,13.84.14.58.43,1.56,1,2.12.87,5.08-1.3,8,1.76,11.52,3.71a21.4,21.4,0,0,0,7.16,2.4c3.37.45,8,3.59,8.74,7l-4-.9,6.83,11.69L306,249.62l5.23.89c.17-1.4-.15-3,.59-4.16,1.66-2.56,3.24-5.78,6-7.07a7.2,7.2,0,0,0,4.64-6.77c.71-9.22,1.08-18.47,1.66-27.7.16-2.46.62-4.9.94-7.35l1.71.06c.44,2.58,1.45,5.19,1.22,7.73-1,10.46-2,20.94-3.63,31.35-1.18,7.48-2.51,15.08-5.34,22.2a72.37,72.37,0,0,1-24.49,32.09c-6.74,5-12.61,11.85-23.1,12-3.92.07-7.84-.17-11.76-.17-3.12,0-6.24.32-9.34.22-10.57-.35-16.48-7.32-23.47-12.3a67.55,67.55,0,0,1-15.17-15.16c-4.67-6.44-9.11-13.41-11.2-20.65-3.32-11.5-5.05-23.36-6.59-35.14-.91-7-.17-14.11-.17-21.17l1.86-.33c.44,1.18,1.21,2.35,1.27,3.54.29,6.78.33,13.56.62,20.34.13,3.17.55,6.34,1,9.51s1.37,5.76,5.28,8c2.31,1.34,7.84,3.79,5.24,8.47-.31.56.82,2.36,1.05,2.33A61.79,61.79,0,0,0,216.56,248.92Zm40.15,24.83c2.35,1.23,3.83,2.55,5.52,2.77,4.19.54,8.47.62,12.72.79a5,5,0,0,0,2.35-.59c5.3-2.8,9.95-6.44,11.36-11.5,1.06-3.81.15-8.07-.33-12.09a4.32,4.32,0,0,0-2.94-2.9c-8.11-.65-16.26-1.19-24.41-1.27-4.73,0-9.47,1.12-14.22,1.24a16.43,16.43,0,0,0-13.41,6.94c-2.33,3-2.49,6.46,0,9.35a113.7,113.7,0,0,0,9.54,9c3.47,3.13,7,2.33,10.58,0C254.68,274.77,256,274.16,256.71,273.75Z"/><path d="M273.6,260.67c-4.24,1.8-5.68,5.5-10.5,7.6-6.73,2.92-8-.11-10.58-3.48-1.28-1.66-3.48-2.83-5.26-4.22l.62-1.57h25Z"/><path d="M397.2,377.46c-11.76,2.84-23.34,6.18-35.24,8.63-4.83,1-10.3.16-14.82.16,0,13,.19,26.71-.05,40.42-.25,14.25-.45,28.52-1.52,42.74-1.13,14.91,2.51,29.48,4.77,44.14A265.18,265.18,0,0,1,176.19,513c.13-4.24.29-8.49.55-12.73.57-9.36,1.27-18.72,2-28.08.57-7.29,1.16-14.58,1.72-21.87a27,27,0,0,0,.33-3.88q-.88-12.17-1.81-24.32-1.28-16.89-2.56-33.8-3.63,0-7.18-.32c-13.31-1.12-26-5.08-38.79-9.2l-7.14-2.29a18.16,18.16,0,0,1,.6-2.69c7-17.15,14.25-34.23,20.81-51.47,4.17-11,13.38-17.35,27.23-21.2,16.76-4.67,33.11-10.22,49.64-15.37,1.52-.47,3.1-.84,4.75-1.27,1.26,13.17,7.61,18.6,24.83,20.84,13.07,1.7,26.06,1.8,37.44-4.5,9-5,10.89-11.15,6-18.89L305,285.88c19.31,7.18,38.51,14.53,58,21.46,9.07,3.23,14.1,8.66,17,15.48,6.92,16.32,13.59,32.7,20.45,49C401.54,374.58,401.37,376.45,397.2,377.46Z"/><path d="M129,378.3c-3.46,17.64-6.79,35.75-5.33,53.8a77.93,77.93,0,0,0,6,25.16c1.7,3.89,3.69,8.08,6.7,11.13,3.23,3.27,7.51,4,11.9,4.34a323.4,323.4,0,0,0,40.71.74,296.71,296.71,0,0,0,45.66-5.14c13.33-2.65,26.88-6.42,38.76-13.21,1.28-.73,2.54-1.51,3.78-2.32,1.6-1.07.1-3.67-1.52-2.6-10.74,7.12-23.38,11.09-35.84,14a268,268,0,0,1-44.24,6,342.4,342.4,0,0,1-41.15,0,83.78,83.78,0,0,1-9.64-.86,11.17,11.17,0,0,1-5.87-2.63,20.67,20.67,0,0,1-3.69-5,68.65,68.65,0,0,1-8-24c-2.54-17.33.17-35.08,3.38-52.12.4-2.14.82-4.28,1.24-6.42.37-1.89-2.52-2.7-2.9-.8Z"/><path d="M167.69,387.83a85.27,85.27,0,0,1-1.22,36.08,1.52,1.52,0,0,0,2.2,1.7c7.91-3.42,17-1.43,25.32-1.84a64.33,64.33,0,0,1,10.57.2c2.36.28,4.68.83,7,1.33A90.1,90.1,0,0,0,222.5,427c1.92.18,1.91-2.82,0-3a82.31,82.31,0,0,1-9.75-1.51c-2.5-.53-5-1.1-7.5-1.43a60,60,0,0,0-10.55-.32c-4.43.2-8.83-.05-13.25-.09-4.91,0-9.75.41-14.29,2.37l2.2,1.69A89,89,0,0,0,170.59,387c-.35-1.9-3.24-1.1-2.9.8Z"/><path d="M397.18,375.4c1.9,12.81,1.65,25.85.29,38.69-.67,6.32-1.62,12.6-2.73,18.86a155.22,155.22,0,0,1-3.47,16.57c-1.3,4.44-3.17,8.94-6.6,12.16-4,3.7-9.32,4.37-14.52,4s-10.62-1.45-16-1.85c-4.77-.36-9.56-.46-14.34-.53-12.1-.2-24.06-.82-36-3.25-1.89-.38-2.69,2.51-.8,2.9a184.47,184.47,0,0,0,33.89,3.3c4.88.08,9.76.13,14.64.41,5.36.31,10.61,1.15,15.94,1.77,5.64.67,11.7.58,16.63-2.61,4.13-2.67,6.76-6.89,8.56-11.38,2-4.95,2.92-10.23,3.91-15.43,1.23-6.51,2.32-13,3.17-19.61,1.92-14.87,2.43-29.93.24-44.8-.29-1.9-3.18-1.09-2.9.8Z"/><path d="M353.17,385.66c-.59,7.11-1.29,14.53-4.16,21.15a23,23,0,0,1-5.93,8.36,14,14,0,0,1-8.81,3.12,64.24,64.24,0,0,1-10.91-.62,58.92,58.92,0,0,1-7.88-1.08c-5.55-1.46-10.83-4-16.1-6.27-3.11-1.31-6.22-2.61-9.42-3.7A23.09,23.09,0,0,0,282.5,405a1.5,1.5,0,0,0,0,3,20,20,0,0,1,6.41,1.43c3,1,5.89,2.2,8.79,3.41,5.5,2.31,11,5,16.77,6.59a56.45,56.45,0,0,0,8.19,1.15,68.42,68.42,0,0,0,11.44.72c3.43-.16,6.91-.82,9.72-2.91a24,24,0,0,0,6.81-8.05c4-7.53,4.84-16.33,5.54-24.68.16-1.93-2.84-1.92-3,0Z"/><path d="M303.9,460.05a135.21,135.21,0,0,1-29-9.58c-7.46-3.53-14.53-7.8-21.83-11.65-6.45-3.4-13.16-6.25-19.73-9.43a192.56,192.56,0,0,0-20.84-9,59.6,59.6,0,0,0-12.47-3c-3.34-.38-6.89-.28-9.94,1.28-1.72.88-.21,3.47,1.51,2.59,2.42-1.23,5.4-1.18,8-.91a51.1,51.1,0,0,1,10.62,2.5A167.93,167.93,0,0,1,231,431.58c6.34,3.06,12.83,5.81,19.09,9.06,7.21,3.74,14.18,7.95,21.48,11.54A139,139,0,0,0,303.1,463c1.88.41,2.69-2.48.8-2.9Z"/><path d="M295.15,229c-3.08-.3-6.85-.47-10.54-1.11-3-.53-5.55-2.4-7.77-4.63a6.29,6.29,0,0,0-.47-.43,36.55,36.55,0,0,1-7.2-9.25c-.74-1.31-1.17-2.83-2-4.07-1.52-2.3-3.24-4.46-6.25-4.58a7.91,7.91,0,0,0-6.37,2.54,4.24,4.24,0,0,0-.9,1.59,25.91,25.91,0,0,1-3.13,6.59,32.32,32.32,0,0,1-6.24,7.41c-1.48,1.24-3.06,2.34-4.6,3.48-2.1,1.54-4.56,1.67-7,1.92a79.62,79.62,0,0,1-17.86-.31,14.92,14.92,0,0,1-6.44-2.53c-1.88-1.24-2.77-3.26-3.56-5.27-1.18-3-2.26-6.12-3.17-9.25s-1.5-6.11-2.18-9.18c-.16-.74-.39-1.07-1.15-1.07-1.53,0-2.23-.63-2.33-2.21a25.3,25.3,0,0,1,.17-3.36c.06-.81.14-1.61.22-2.42.06-.64.22-1.1,1-1.15,4.1-.27,8.2-.68,12.31-.85q7.16-.29,14.31-.22c6.12.06,12.23.29,18.34.49,1,0,2.08.22,3.11.35a8.7,8.7,0,0,1,3.5,1.72c.76.49,1.53,1,2.32,1.39,3.86,2.1,8,1.93,12.12,1.48a19.89,19.89,0,0,0,6.81-2,35.07,35.07,0,0,1,3.39-1.94,15.14,15.14,0,0,1,4.53-1c10.64-.35,21.29-.87,31.94-.4,3.84.17,7.67.62,11.5.92.54.05,1.08,0,1.61,0,1.12,0,1.27.19,1.36,1.33.1,1.31.3,2.61.41,3.91a9.73,9.73,0,0,1,0,1.87c-.18,1.35-.86,2-2.16,2-.93,0-1.16.39-1.35,1.27-.74,3.32-1.51,6.63-2.41,9.9a45,45,0,0,1-4.43,11.32,7.47,7.47,0,0,1-1.84,2.11,14,14,0,0,1-7.62,2.84C302,228.52,298.93,228.73,295.15,229Zm-12-20.46.29.4,10.83-7.18-.24-.42c-.87.52-1.75,1-2.61,1.58q-3.82,2.47-7.63,5A4.3,4.3,0,0,0,283.13,208.54ZM213,208.41l.17.32a7.16,7.16,0,0,0,.78-.4L222,203c.12-.09.28-.15.36-.27a4.65,4.65,0,0,0,.32-.63l-.21-.19Zm17.13-5.09-.16-.18c-1.64.62-6.33,4.62-6.66,5.69C225.59,207,227.85,205.16,230.12,203.32Zm68.37,2.54-.21-.18c-.81.52-1.62,1-2.42,1.56a.45.45,0,0,0-.05.39.39.39,0,0,0,.38.09,19.48,19.48,0,0,0,2-1.07C298.34,206.52,298.38,206.13,298.49,205.86Zm-63.31-.31-2.76,2C233.77,207.74,235.25,206.71,235.18,205.55Zm66.7,4.46c.62-.57,1.08-1,1.51-1.41.06-.06,0-.27,0-.41-.46.13-.93.25-1.37.42-.15.06-.34.25-.34.38A4.76,4.76,0,0,0,301.88,210Z"/><path d="M215.71,203.89a6,6,0,0,1,.56,2.15c0,.24-.13.89-.35.74l.31,2.36a55.28,55.28,0,0,1,8.15-7.74L222,199.58a24.7,24.7,0,0,1-2.33,4.29l2.79.76a3.67,3.67,0,0,1,1.52-2.84c.78-.41,1.48.23,1.55,1.05,0,.59-.57,1.34-1.2.92s-.11-1.4.47-1.5L223,200.41c-.47,3.16-4.19,3.53-6.77,3.77-3.18.3-6.53,1-8.21,4a1.51,1.51,0,0,0,.89,2.21,12.13,12.13,0,0,0,10.48-3.33,1.51,1.51,0,0,0-1.82-2.36l-4.87,2.91,1.82,2.36,2.84-2.81-2.56-1.06a4.24,4.24,0,0,0,3.42,3.93c2.19.46,4.26-.87,5.95-2.09.85-.62,1.68-1.27,2.47-2,.42-.38.84-.76,1.25-1.16a5.82,5.82,0,0,0,1.2-1.23c.5-.38.35-.5-.44-.37a.74.74,0,0,1,.16.27c0,.39.11.42-.15.77-.48.65-1.64.82-2.37,1l1.7,2.2a11.5,11.5,0,0,1,6-5.65l-1.7-2.2a25.56,25.56,0,0,1-11.61,8.83l1.46,2.51a27.07,27.07,0,0,1,13.87-6.2l-1.85-1.85a11.85,11.85,0,0,1-3,5.56l2.36,1.82a17,17,0,0,1,4.11-5.63c1.44-1.3-.68-3.4-2.12-2.12l-6.65,5.87,2.13,2.12,7.24-6.8c1.42-1.33-.69-3.42-2.12-2.12a30.28,30.28,0,0,1-7,4.77l2.25,1.29.33-2.48c.15-1.16-1.38-1.82-2.26-1.29a43.85,43.85,0,0,0-9.25,7.37,1.51,1.51,0,0,0,1.82,2.36l10.32-4.46-2.2-.9.57,2.42c.44,1.88,3.34,1.09,2.89-.79l-.57-2.43a1.52,1.52,0,0,0-2.2-.89l-10.32,4.46,1.82,2.35a40.52,40.52,0,0,1,8.64-6.9l-2.26-1.3-.33,2.48c-.16,1.23,1.37,1.74,2.26,1.3a32.82,32.82,0,0,0,7.59-5.24l-2.12-2.12-7.25,6.8c-1.41,1.33.69,3.39,2.13,2.12l6.64-5.87-2.12-2.12a19.06,19.06,0,0,0-4.59,6.23c-.67,1.47,1.09,3.12,2.36,1.82a14.9,14.9,0,0,0,3.82-6.88,1.53,1.53,0,0,0-1.85-1.85,30,30,0,0,0-15.19,7,1.51,1.51,0,0,0,1.46,2.51,29.13,29.13,0,0,0,13.4-10.21,1.51,1.51,0,0,0-1.69-2.21,14.56,14.56,0,0,0-7.83,7,1.52,1.52,0,0,0,1.69,2.21c1.93-.45,4.18-1.34,4.68-3.5.41-1.78-.65-4.19-2.68-4.3-1.21-.07-1.8.81-2.56,1.6a33.14,33.14,0,0,1-2.83,2.6,16.52,16.52,0,0,1-3.24,2.2c-.78.37-2.55.71-2.66-.65a1.52,1.52,0,0,0-2.56-1.06l-2.85,2.8a1.51,1.51,0,0,0,1.82,2.36l4.88-2.91L217.24,205a8.94,8.94,0,0,1-7.56,2.56l.9,2.21c1.62-2.93,5.75-2.35,8.56-2.87,3-.56,6.23-2.33,6.72-5.64a1.53,1.53,0,0,0-1.84-1.85c-2.64.47-3.73,4.06-2.18,6.1a3.81,3.81,0,0,0,6.44-1.05c.94-2.46-.81-5.66-3.56-5.77-3.21-.13-5,3.23-5.24,6-.14,1.6,2,1.87,2.8.76a24.79,24.79,0,0,0,2.33-4.3,1.5,1.5,0,0,0-2.35-1.81,55.28,55.28,0,0,0-8.15,7.74,1.51,1.51,0,0,0,.3,2.35,3,3,0,0,0,4.1-.9c1.2-1.6.72-3.64.09-5.38s-3.55-1-2.89.8Z"/><path d="M289.57,206.29l-8.18,2.56,1.85,1c-.3-1.25.86-2.15,1.87-2.61,1.37-.63,2.86-1,4.26-1.57a40.68,40.68,0,0,0,8.11-4.5c1.1-.77.87-2.92-.75-2.79a15.55,15.55,0,0,0-8.91,3.69c-1.3,1.09.4,3.28,1.82,2.35q3.71-2.43,7.16-5.21c1.19-.95-.09-2.94-1.46-2.51a7.89,7.89,0,0,0-5.08,5.12,1.52,1.52,0,0,0,.69,1.7,12.33,12.33,0,0,0,10.89,0L300.33,201l-8,6a1.5,1.5,0,0,0,1.51,2.59,33.64,33.64,0,0,0,7.57-4.65l-2.12-2.12-6.73,6.57c-1.2,1.17.37,3.31,1.82,2.36l9.8-6.48-2.26-1.29a6.82,6.82,0,0,1-.92,4.21c-.74,1.23.78,2.92,2,2a7.92,7.92,0,0,0,2.87-3.43c.74-1.72-1.58-3.22-2.59-1.51a11.44,11.44,0,0,1-4.29,4.25l2.21.9a2.65,2.65,0,0,1,.8-2.31L299.9,206l-1.47,1.78,2.36,1.81L304,204A1.51,1.51,0,0,0,302,202c-2.23,1.29-7.24,4.65-5.5,7.83s7.13.86,9.26-.6c1.1-.76.86-3-.76-2.8a8.39,8.39,0,0,0-7.25,6.37c-.3,1.17,1.09,2.49,2.2,1.69a25.57,25.57,0,0,0,6.54-6.74l-2.79-.75a6.46,6.46,0,0,1-.83,3.47l2.79.76-.11-5.47c0-.73-.68-1.61-1.5-1.5a14.85,14.85,0,0,0-11.19,7.89c-.9,1.7,1.68,3.22,2.59,1.51a11.82,11.82,0,0,1,8.6-6.4l-1.5-1.5.11,5.47a1.52,1.52,0,0,0,2.8.76,9.47,9.47,0,0,0,1.24-5,1.52,1.52,0,0,0-2.8-.76,21.93,21.93,0,0,1-5.46,5.66l2.2,1.7a5.36,5.36,0,0,1,4.36-4.17l-.75-2.79a9.93,9.93,0,0,1-2.81,1.38,8.57,8.57,0,0,1-1.51.29c-.23,0-.46,0-.7,0s-.3-.06-.12,0l.76-.85a12.93,12.93,0,0,1,1.12-1.1,15,15,0,0,1,2.53-1.79l-2.05-2-3.22,5.54c-.83,1.43,1.24,3.17,2.36,1.82L302,208.1c1.21-1.46-.72-3.51-2.12-2.12a5.8,5.8,0,0,0-1.57,5.23,1.51,1.51,0,0,0,2.2.89,14.58,14.58,0,0,0,5.36-5.33l-2.59-1.51a5.16,5.16,0,0,1-1.8,2.35l2.06,2a9.56,9.56,0,0,0,1.33-5.72,1.52,1.52,0,0,0-2.26-1.3l-9.8,6.48,1.82,2.35,6.73-6.57c1.41-1.38-.65-3.3-2.12-2.12a30.93,30.93,0,0,1-7,4.18l1.51,2.59,8-6a1.5,1.5,0,0,0-1.51-2.59,9.1,9.1,0,0,1-7.86,0l.69,1.69a4.67,4.67,0,0,1,3-3l-1.46-2.5q-3.17,2.52-6.56,4.74l1.82,2.36a12.09,12.09,0,0,1,6.79-2.81l-.76-2.8a38.72,38.72,0,0,1-10.08,5.2,9.69,9.69,0,0,0-4.35,2.35,5,5,0,0,0-1.19,4.52,1.52,1.52,0,0,0,1.84,1.05l8.18-2.55c1.84-.58,1.05-3.47-.8-2.9Z"/><path class="cls-1" d="M304.67,284.94c-.52,1.56-1.15,3.09-1.67,4.6-1.3,3.72.36,6.15-2,9.46-5,7.05-14.48,15-19.88,21.75-2.25,2.82-5.58,4.81-8.88,7.56-4.48-.9-9.39-1.84-14.27-2.89-3.81-.83-7.66-1.58-11.35-2.76-5.2-1.67-8.54-5.84-11.75-9.75a125.08,125.08,0,0,1-9.2-13.74,24.33,24.33,0,0,1-1.92-5.31c-.18-.58.05-1.31-.22-1.82a18,18,0,0,1-2.06-6.63c-1.46.53-2.95,1-4.45,1.41-1.78,16.38,8.22,25.34,19.82,34,3.36,2.5,6.42,4.86,7.91,9.34,2.24,6.73,5.95,13,8.88,19.5a4.63,4.63,0,0,1,.15,3.64c-7.84,13.65-8.92,28.76-10,43.82-.58,8.32-.16,16.71-.69,25-.92,14.6-2.33,29.17-3.33,43.76-.73,10.56-.11,21.32-2.06,31.64-1.23,6.49.67,10.84,4,15.54.78,1.12,1.47,2.29,2.18,3.46,2.83,4.63,7,16.05,10.14,20.47,2.44,3.44,2.87-3.26,6.06-6.11A12.59,12.59,0,0,0,262,528.6c4.2-6.29,8.41-12.57,12.55-18.89,3.31-5,5.42-10.29,2.65-16.31a6,6,0,0,1-.29-2.18c-.52-12.53-1.1-25.06-1.51-37.59-.6-18.07-.92-36.15-1.62-54.22-.53-13.78-2.23-27.41-6.8-40.6a8.48,8.48,0,0,1,.1-5.27,155,155,0,0,1,6.56-16,53.68,53.68,0,0,1,6.46-9.24C286.63,320,299.7,312.43,306,304c3.71-5,3-10.62,2.87-17.25Q306.74,285.91,304.67,284.94Z"/></g></g></svg>